<svg width="20" height="20" viewBox="0 0 20 20" fill="none" xmlns="http://www.w3.org/2000/svg">
<path d="M16.5589 7.4318C16.038 7.75071 15.6066 8.19655 15.3049 8.72761C15.0032 9.25867 14.8413 9.85759 14.8341 10.4683C14.8362 11.1557 15.0398 11.8273 15.4198 12.4001C15.7998 12.9728 16.3395 13.4215 16.972 13.6906C16.7226 14.4952 16.3536 15.2577 15.8772 15.9524C15.1956 16.9336 14.4829 17.9147 13.3985 17.9147C12.3141 17.9147 12.0352 17.2847 10.7855 17.2847C9.5668 17.2847 9.133 17.9354 8.1415 17.9354C7.15 17.9354 6.4581 17.0265 5.6628 15.9111C4.61227 14.3485 4.03491 12.516 4 10.6335C4 7.5351 6.014 5.893 7.9969 5.893C9.0504 5.893 9.9283 6.5849 10.5893 6.5849C11.2193 6.5849 12.2005 5.8516 13.3985 5.8516C14.0145 5.83571 14.6249 5.97152 15.176 6.24708C15.7271 6.52264 16.202 6.92949 16.5589 7.4318ZM12.8305 4.54C13.3586 3.91876 13.6575 3.13513 13.6774 2.32C13.6783 2.21254 13.6679 2.10529 13.6464 2C12.7393 2.08861 11.9004 2.52097 11.3019 3.2084C10.7687 3.80488 10.4585 4.56759 10.424 5.3669C10.4244 5.46411 10.4348 5.56102 10.455 5.6561C10.5265 5.66962 10.5991 5.67655 10.6719 5.6768C11.09 5.64353 11.4969 5.5256 11.868 5.33018C12.2391 5.13475 12.5665 4.86591 12.8305 4.54Z" fill="black"/>
</svg>
