<svg width="20" height="20" viewBox="0 0 20 20" fill="none" xmlns="http://www.w3.org/2000/svg">
<path d="M14.8235 5.9648H13.803C13.6936 5.15378 13.2972 4.4088 12.6858 3.86489C12.0743 3.32099 11.2882 3.01415 10.47 3C9.65176 3.01415 8.86567 3.32099 8.25421 3.86489C7.64275 4.4088 7.2464 5.15378 7.137 5.9648H6.117C5.55579 5.96517 5.01766 6.18822 4.62075 6.58498C4.22384 6.98174 4.00058 7.51979 4 8.081V15.7965C4.0005 16.3576 4.2236 16.8957 4.62035 17.2925C5.01709 17.6893 5.55506 17.9126 6.1162 17.9132H14.8232C15.3844 17.9127 15.9226 17.6896 16.3194 17.2927C16.7163 16.8959 16.9395 16.3577 16.94 15.7965V8.081C16.9394 7.51988 16.7162 6.98191 16.3194 6.58516C15.9226 6.18841 15.3846 5.9653 14.8235 5.9648ZM10.47 4.0996C10.9974 4.11106 11.5051 4.30217 11.9092 4.64132C12.3132 4.98047 12.5895 5.44736 12.6922 5.9648H8.2478C8.35052 5.44736 8.62675 4.98047 9.03082 4.64132C9.43488 4.30217 9.94259 4.11106 10.47 4.0996ZM15.84 15.7965C15.8397 16.0661 15.7325 16.3245 15.542 16.5152C15.3514 16.7059 15.093 16.8132 14.8234 16.8136H6.1165C5.84694 16.8131 5.58856 16.7058 5.39801 16.5152C5.20746 16.3245 5.10029 16.0661 5.1 15.7965V8.081C5.10032 7.81148 5.20753 7.55309 5.39811 7.36251C5.58869 7.17193 5.84708 7.06472 6.1166 7.0644H14.8236C15.0931 7.06477 15.3514 7.172 15.542 7.36258C15.7325 7.55315 15.8397 7.81151 15.84 8.081V15.7965Z" fill="black"/>
</svg>
