<svg width="20" height="20" viewBox="0 0 20 20" fill="none" xmlns="http://www.w3.org/2000/svg">
<path d="M16.848 15.752L12.978 11.882C13.679 10.953 14.1 9.801 14.1 8.55C14.1 5.49 11.611 3 8.55 3C5.49 3 3 5.49 3 8.55C3 11.611 5.49 14.1 8.55 14.1C9.801 14.1 10.953 13.679 11.882 12.978L15.752 16.848C15.903 16.999 16.102 17.076 16.3 17.076C16.498 17.076 16.696 17 16.848 16.848C17.151 16.545 17.151 16.055 16.848 15.752ZM4.1 8.55C4.1 6.096 6.097 4.1 8.55 4.1C11.004 4.1 13 6.097 13 8.55C13 11.003 11.004 13 8.55 13C6.096 13 4.1 11.004 4.1 8.55Z" fill="black"/>
</svg>
